<?xml version="1.0" encoding="utf-8"?>
<!-- Generator: Adobe Illustrator 16.0.4, SVG Export Plug-In . SVG Version: 6.00 Build 0)  -->
<!DOCTYPE svg PUBLIC "-//W3C//DTD SVG 1.1//EN" "http://www.w3.org/Graphics/SVG/1.1/DTD/svg11.dtd">
<svg version="1.1" id="Layer_1" xmlns="http://www.w3.org/2000/svg" xmlns:xlink="http://www.w3.org/1999/xlink" x="0px" y="0px"
	 width="218px" height="218.392px" viewBox="0 0 218 218.392" enable-background="new 0 0 218 218.392" xml:space="preserve">
<rect fill="#E5E5EA" width="217.938" height="218.392"/>
<path fill-rule="evenodd" clip-rule="evenodd" fill="#FFFFFF" d="M8.059,169.326l-1.75-6l9.433,1.438l-0.812,5.875L8.059,169.326z
	 M3.936,155.2l12.805,1.812l-0.874,6.375l-9.994-1.5L3.936,155.2z M19.239,154.763l-6.496-22.752l6.996-3.438l7.558,3.875
	l-3.311,23.002L19.239,154.763z M11.368,153.638l-3.185-10.313l4.746-1.25l3.498,12.251L11.368,153.638z M5.747,135.448l4.622-2.25
	l2.186,7.626l-4.809,1.25L5.747,135.448z M21.238,127.886l8.183-4.001c1.374,1.375,3.123,2.312,5.06,2.625l-1.25,7.438
	L21.238,127.886z M8.87,117.26l9.994,1.125l0.75,5.438l-7.871,3.876L8.87,117.26z M19.614,113.884l7.058,2.563v0.625
	c0,1.062,0.188,2.062,0.5,3l-6.309,3.062L19.614,113.884z M19.864,111.196l1.811-4.375l6.56,5c-0.438,0.625-0.75,1.312-1,2.062
	L19.864,111.196z M12.118,108.384l1.749-7.501l6.746,5.126l-1.937,4.75L12.118,108.384z M16.428,90.069
	c6.185,2.188,11.493,3.626,14.242,4.251l-0.125,5.438l-9.057,5.313l-7.246-5.501L16.428,90.069z M6.809,96.258l3.311-8.626
	c1.312,0.562,2.561,1.062,3.873,1.5l-2.124,9.063L6.809,96.258z M23.487,69.881l7.87-1.312l-0.625,23.064
	c-1.998-0.501-5.06-1.313-8.683-2.501L23.487,69.881z M4.997,50.004l9.245-0.688l2.061,19.064L8.37,69.693L4.997,50.004z
	 M23.986,48.629l1.562,18.251l-6.684,1.126l-2.062-18.814L23.986,48.629z M31.982,48.004l-0.5,17.876l-4.561,0.75L25.36,48.504
	L31.982,48.004z M44.287,41.128l6.996,1.375l-0.625,7.501l-8.057-2.375L44.287,41.128z M36.354,45.816l0.312-11.376l7.809,0.438
	l-3.123,12.376L36.354,45.816z M11.806,32.253l12.931,0.875l-0.75,12.876l-14.18,1.062L11.806,32.253z M26.297,27.689l6.184,0.625
	l-0.498,17.064l-6.746,0.5L26.297,27.689z M11.993,30.939l0.625-4.625l12.43,1.25l-0.25,4.251L11.993,30.939z M26.547,25.127
	l0.562-4.125l5.56,0.5l-0.125,4.25L26.547,25.127z M12.93,23.752l0.562-4.001l12.368,1.126l-0.562,4.125L12.93,23.752z
	 M28.857,8.625l4.187,0.626L32.73,20.189l-5.434-0.501L28.857,8.625z M13.617,18.438l1.562-11.75l12.368,1.75l-1.562,11.125
	L13.617,18.438z M43.038,10.688l1.124,14.501h-7.246l0.438-15.313L43.038,10.688z M44.725,32.315l-7.996-0.438l0.125-5.376h7.371
	L44.725,32.315z M53.907,12.251l-1.749,20.502L46.1,32.378l-1.688-21.564L53.907,12.251z M81.766,16.251L75.52,29.252l-19.738-8.812
	l0.687-7.813L81.766,16.251z M123.929,9.813l13.306,2.312l-0.75,5.375l-13.742-1.375L123.929,9.813z M125.053,3.875l29.733,4.375
	l-0.999,5.438L124.179,8.5L125.053,3.875z M169.715,5.188l1.749,8.25l-13.742,2.875l1.812-9.75L169.715,5.188z M181.833,12.626
	l-1.937,10.438l-22.986-2.625l0.5-2.751L181.833,12.626z M187.455,12.688l2.061,6.688l-6.433,0.813l1.437-7.751L187.455,12.688z
	 M184.77,11.126L186.768,0l10.058,1.438c-0.25,2.25-0.688,6.001-1.062,10.751L184.77,11.126z M207.881,3.062l-0.687,5.312
	l-8.309-1.5c0.188-2.062,0.375-3.812,0.5-5L207.881,3.062z M214.314,3.938l-2.498,20.627l-5.247-0.625l2.624-20.814L214.314,3.938z
	 M204.445,30.127l-6.871,0.188c0-2,0.062-3.938,0.125-5.812l7.371,0.75L204.445,30.127z M211.629,25.939l-0.5,4.062l-5.372,0.125
	l0.625-4.75C207.568,25.439,210.066,25.752,211.629,25.939z M195.076,38.378l-11.369,0.875l-0.938-10.063l12.243,0.5
	C194.888,32.565,194.951,35.503,195.076,38.378z M208.88,48.441l-10.369,0.75c-0.624-5.188-0.874-10.813-0.937-16.313l13.242-0.312
	L208.88,48.441z M197.012,56.317l-11.556,1.625l-1.687-17.439l11.307-0.875C195.388,45.504,195.95,51.254,197.012,56.317z
	 M201.697,68.881c0.874,1.312,1.874,2.562,2.936,3.812l-8.62,2.25l-3.311-16.626l4.622-0.625
	C198.324,62.005,199.76,65.88,201.697,68.881z M211.066,65.567l3.686,6.126l-6.309,1.062c-1.249-1.188-2.374-2.375-3.312-3.625
	L211.066,65.567z M213.689,80.194l-3.623,10.438l-11.867-3.312l4.81-11.501l3.747-1C208.818,76.756,211.191,78.568,213.689,80.194z
	 M209.691,91.883l-2.747,8l-12.118-4.438l2.873-6.938L209.691,91.883z M217.188,94.695l-3.248,7.813l-4.623-1.688l2.812-8.062
	L217.188,94.695z M214.939,105.634l-2.623,8.438l-5.247-1.562l-6.935-3.125l3.062-8.001L214.939,105.634z M211.941,115.321
	l-1.75,5.626l-5.809,0.75l2.812-7.751L211.941,115.321z M195.013,122.822l4.686-12.313l6.371,2.875l-3.061,8.376L195.013,122.822z
	 M185.27,124.072l-1.562-10.251l12.181,3.001l-2.374,6.188L185.27,124.072z M211.629,128.448c-3.686,1.25-14.867,5-17.803,6
	l-1.624-8.626l18.052-2.25L211.629,128.448z M213.564,135.636l-17.864,8.813l-1.624-8.688l17.865-6L213.564,135.636z
	 M206.632,154.013l-26.923,3.312c0-0.062-0.062-0.125-0.062-0.188l25.36-12.438L206.632,154.013z M208.693,166.138l-28.734-5.313
	c0.062-0.312,0.062-0.625,0.062-0.938l27.048-3.375L208.693,166.138z M198.386,168.701l-17.552,8.127l-5.372-8.939
	c1.187-0.75,2.187-1.688,2.998-2.875L198.386,168.701z M198.511,184.015l-19.551-3.438l23.861-11.064L198.511,184.015z
	 M212.566,171.326l-3.873,14.502l-8.934-1.562l4.248-14.502L212.566,171.326z M198.136,186.64l-0.125,12.126l-11.618,0.5
	l-0.125-14.689L198.136,186.64z M208.443,188.453l0.625,9.875l-9.745,0.377l0.125-11.876L208.443,188.453z M176.087,199.704
	l1.749-16.564l7.059,1.25l0.125,15.001L176.087,199.704z M164.156,200.142l2.374-12.626c2.81,0.5,7.745,1.312,9.432,1.625
	l-1.125,10.564L164.156,200.142z M159.471,201.517l-2.623,13.875l-16.304-3l2.812-14.002L159.471,201.517z M209.63,207.892
	l-9.807,0.562l0.125-7.125l9.245-0.375L209.63,207.892z M163.156,205.267l0.438-2.438l33.668-1.375l-0.125,6.938L163.156,205.267z
	 M175.087,207.704v4.438l-12.868-1.812l0.688-3.688L175.087,207.704z M197.199,209.704l-0.062,5.562l-20.738-3v-4.5L197.199,209.704
	z M210.191,217.142l-10.493-1.5l0.125-5.875l9.932-0.562L210.191,217.142z M127.302,209.954l2.687-14.189l12.117,2.375
	l-2.811,14.002L127.302,209.954z M110.438,203.267l2.623-10.814l14.366,2.812l-2.061,10.876L110.438,203.267z M104.564,216.392
	l-6.059-0.875l2.561-12.688l6.496,1.312L104.564,216.392z M90.511,214.329l0.938-5.25l6.746,1.25l-1,5L90.511,214.329z
	 M91.697,207.767l1.187-6.625l6.871,1.375l-1.311,6.5L91.697,207.767z M78.205,202.642l2.186-15.564l10.308,1.875l-2.687,15.064
	L78.205,202.642z M57.717,210.579l-9.869-1.562l2.873-16.689l10.308,2.312C60.028,199.579,58.841,205.267,57.717,210.579z
	 M29.795,206.454l-7.433-6.75l24.61-1l-0.812,4.938L29.795,206.454z M15.116,208.517l-0.25-8.562l5.622-0.25l7.621,6.938
	C25.173,207.079,18.115,208.079,15.116,208.517z M26.735,192.14l1.249-5.625l20.426,4l-0.875,5.25L26.735,192.14z M5.934,188.515
	l1.188-6l19.614,3.812l-1.25,5.625L5.934,188.515z M7.621,179.89l1.186-6.002l12.743,2.314l-0.749,6.188L7.621,179.89z
	 M29.232,173.263l2.375-14.063l9.807,1.375l-2.811,14.375L29.232,173.263z M41.164,143.012l8.12,1.438l-6.996,13.626l-3.873-0.562
	L41.164,143.012z M31.232,145.699l-4.311-1l1.688-11.688l4.435,2.25L31.232,145.699z M51.595,142.199l-16.614-2.938l2.186-12.688
	c1.249-0.125,2.436-0.5,3.498-1.062L51.595,142.199z M57.592,128.198l-2.936,14.563l-1.312-0.25l-11.617-17.689
	c0.5-0.375,1-0.812,1.437-1.25L57.592,128.198z M45.35,119.697c0.25-0.812,0.375-1.688,0.375-2.625v-0.375l18.238-4.626
	l3.248,10.438l-5.809,2.312L45.35,119.697z M41.352,117.072c0,2.875-2.312,5.188-5.185,5.188c-2.874,0-5.185-2.312-5.185-5.188
	c0-2.876,2.311-5.188,5.185-5.188C39.04,111.884,41.352,114.259,41.352,117.072z M40.789,90.194l4.186,2.563l-3.998,8.25
	l-6.121-1.062l0.312-10.438L40.789,90.194z M43.225,82.194l5.372,2.875l-3.122,6.438l-3.748-2.313L43.225,82.194z M44.475,70.256
	l-3.998,18.563l-5.31-0.688l0.563-19.563L44.475,70.256z M41.227,59.13l17.803,4.25l-3.124,6.438l-15.491-3.001L41.227,59.13z
	 M39.165,66.567l-3.373-0.625l0.5-17.376l4.622,1.375L39.165,66.567z M62.527,56.192l-2.874,5.938l-18.239-4.375l0.812-7.563
	L62.527,56.192z M67.023,46.879l-3.311,6.938l-10.431-3.062l0.625-7.626L67.023,46.879z M74.395,31.565l-6.809,14.126l-2.248-0.625
	l-4.685-19.627L74.395,31.565z M88.574,24.939l-1.812,6.876l-7.309-0.876l3.374-6.938L88.574,24.939z M99.818,18.188l-1.374,7.063
	l-14.93-2.5l2.873-5.938L99.818,18.188z M137.796,17.626l0.75-5.25l14.991,2.625l-0.75,4.125L137.796,17.626z M112.936,26.002
	l-13.242-0.625c0.562-2.875,1.062-5.375,1.373-7.063l12.306,1.25L112.936,26.002z M120.618,29.439l-5.06-3.125l0.438-6.501
	l14.929,1.501L120.618,29.439z M134.236,34.565l-5.686-0.25l-6.746-4.188l10.994-8.688l1.812,0.188L134.236,34.565z M145.854,35.003
	l-8.994-0.375l0.375-12.751l8.744,0.875L145.854,35.003z M152.538,23.502l1.437,11.876l-6.871-0.25l0.125-12.126L152.538,23.502z
	 M136.797,36.003l9.119,0.375l0.688,8.001l-9.994-0.25L136.797,36.003z M129.051,35.69l5.122,0.188l-0.25,8.126l-4.31-0.125
	L129.051,35.69z M114.934,35.128l12.806,0.5l0.562,8.188l-13.992-0.375L114.934,35.128z M106.439,34.815l5.871,0.25l-0.625,8.376
	l-5.746-0.126L106.439,34.815z M97.944,34.44l7.183,0.312c-0.125,1.688-0.375,6.25-0.499,8.5l-8.371-0.188
	C96.632,41.253,97.257,38.065,97.944,34.44z M95.758,38.815l-0.812,4.125L74.02,42.378l2.437-5.062L95.758,38.815z M84.514,32.878
	l12.182,1.5l-0.625,3.188L83.64,36.628L84.514,32.878z M83.202,32.69l-0.938,3.812l-5.184-0.375l1.874-3.938L83.202,32.69z
	 M96.882,33.065l-8.745-1.062l1.749-6.813l8.245,1.375L96.882,33.065z M105.189,33.44l-6.995-0.25
	c0.437-2.125,0.874-4.376,1.249-6.501l5.934,0.25L105.189,33.44z M115.434,27.752l10.432,6.501l-10.868-0.438L115.434,27.752z
	 M112.436,33.69l-5.871-0.25c0.062-1.5,0.187-5.001,0.25-6.501l6.121,0.25L112.436,33.69z M155.161,44.504l-7.183-0.188
	c-0.188-2.063-0.563-6.251-0.688-7.938l6.934,0.25L155.161,44.504z M173.65,45.379l7.933-0.875l0.313,3.562l-7.746,1.25
	L173.65,45.379z M172.9,49.504l-5.621,0.875l-0.625-4.188l5.746-0.625L172.9,49.504z M175.523,59.505l-1.186-8.876l7.684-1.25
	l0.812,8.438L175.523,59.505z M187.33,77.193l-1.686-17.876l5.809-0.812l3.31,16.813L187.33,77.193z M188.768,84.632l1.998-5.688
	l10.619-2.75l-4.435,10.751L188.768,84.632z M186.081,92.32l2.249-6.438l8.12,2.25l-2.873,6.876L186.081,92.32z M182.208,104.259
	l-1.749-11.188l21.488,7.812l-3.062,8.001L182.208,104.259z M182.395,105.634l15.991,4.438l-2.061,5.5l-12.868-3.188
	L182.395,105.634z M168.653,119.135l-1.687-13.938h12.742l1.938,12.438L168.653,119.135z M182.958,126.197l-6.497,1.063
	l-0.938-7.563l6.31-0.75L182.958,126.197z M185.706,126.635l5.185-0.688l3.561,19.002l-5.559,2.688L185.706,126.635z
	 M172.464,150.387l-1.125-9.312l13.617-2.126l1.562,9.938l-8.932,4.376C176.211,151.888,174.462,150.825,172.464,150.387z
	 M161.407,156.888l-4.186-1.312l3.187-6.313l3.248,3.813C162.657,154.138,161.845,155.45,161.407,156.888z M165.343,159.763
	c0-2.875,2.312-5.188,5.185-5.188s5.185,2.312,5.185,5.188s-2.312,5.188-5.185,5.188
	C167.654,164.888,165.343,162.575,165.343,159.763z M163.906,177.703l-17.678-2.814l3.436-17.188l11.431,3.688
	c0.5,2.813,2.249,5.25,4.622,6.625L163.906,177.703z M168.154,178.703l1.749-9.439h0.562c1.374,0,2.623-0.312,3.811-0.812
	l5.371,8.877l-5.246,2.438L168.154,178.703z M162.407,185.578c-2.998-0.438-8.37-1.188-10.806-1.5l0.812-5.562l10.993,1.75
	L162.407,185.578z M166.717,186.265l0.938-4.938l8.932,1.562l-0.499,5L166.717,186.265z M151.477,185.39l10.742,1.5l-2.248,12.064
	l-10.182-2.002L151.477,185.39z M133.798,175.515l16.054,2.562l-2.623,18.312l-16.74-3.25L133.798,175.515z M115.059,190.14
	l15.68-12.875l-2.874,15.375L115.059,190.14z M110.499,191.953l-2.623,10.876c-3.062-0.625-10.932-2.188-14.742-2.938l1.937-10.939
	L110.499,191.953z M95.57,186.39l1.874-10.5l7.308-5.939l10.12,17.127l-3.124,2.562L95.57,186.39z M65.837,184.39l13.243,2.438
	l-2.188,15.626l-14.429-2.062L65.837,184.39z M52.532,181.953l10.743,2c-0.437,2.062-1.123,5.438-1.936,9.375l-10.307-2.312
	L52.532,181.953z M34.168,178.578l15.803,2.875l-1.124,6.438l-15.491-3L34.168,178.578z M32.855,178.328l-0.812,6.312l-10.057-1.938
	l0.75-6.25L32.855,178.328z M50.783,161.888l-2.998,14.752l-7.934-1.438l2.875-14.44L50.783,161.888z M56.717,145.762l13.43,2.375
	l-2.623,13.501l-13.68-1.938L56.717,145.762z M54.156,145.324l-2.811,14.001l-7.621-1.062l6.996-13.563L54.156,145.324z
	 M73.021,133.136l-2.375,12.438l-13.43-2.375l2.874-14.188L73.021,133.136z M80.143,118.697l7.369,14.563l-24.173-7.751
	L80.143,118.697z M84.514,106.884l2.187,7.688l-18.239,7.376l-3.186-10.251L84.514,106.884z M67.586,101.258l1.874,4.938
	l-15.491,3.938l-1.686-4.625L67.586,101.258z M57.904,102.571l-6.06,1.688l-3.31-9.001l3.373-7.063L57.904,102.571z M57.904,75.881
	l4.435,11.563l-7.495,4.313l-2.124-5.063L57.904,75.881z M54.781,72.256l-5.622,11.626l-5.621-3.062l2.248-10.313L54.781,72.256z
	 M74.395,70.568L64.275,85.319l-4.872-12.688l2.936-6.063L74.395,70.568z M81.703,55.192l-5.996,13.063l-12.243-4.063l5.996-12.438
	L81.703,55.192z M93.571,49.629l-2.998,5.313l-19.927-5.688l2.062-4.312l7.246,0.188L93.571,49.629z M94.009,48.441l-9.432-3.062
	l9.931,0.25C94.321,46.504,94.134,47.691,94.009,48.441z M106.939,52.629l-11.682-3.812l0.5-3.188l13.867,0.375L106.939,52.629z
	 M127.864,46.441l1.249,13.438l-20.926-6.813l2.873-7L127.864,46.441z M160.408,51.504l-0.562-4.562l5.497-0.625
	c0.188,1,0.374,2.562,0.688,4.25L160.408,51.504z M168.903,61.067l-1.438-9.313l5.622-0.875l1.188,9.001L168.903,61.067z
	 M168.716,70.631l0.312-6.938l14.055-3.25l0.749,7.563L168.716,70.631z M168.154,82.132l0.499-10.126l15.241-2.688l0.812,8.562
	L168.154,82.132z M166.654,85.194l22.55-5.875l-4.372,12.501L166.654,85.194z M166.092,98.258l-1.311-10.938l11.867,4.313
	L166.092,98.258z M166.779,103.884l-0.499-4.188l11.493-7.188l1.748,11.376H166.779z M149.789,105.946l12.43-3.751l1.562,13.001
	c-0.312,0.062-0.688,0.188-1.062,0.25L149.789,105.946z M142.044,123.635l-4.062-5.625l16.992-6.563l6.12,4.5
	C155.848,117.447,147.229,120.26,142.044,123.635z M170.09,130.886l13.305-2.062l1.375,8.875l-13.556,2.126L170.09,130.886z
	 M153.287,136.886l3.935-4.562l8.934,2.562l1.936,15.627c-0.812,0.188-1.561,0.562-2.311,0.938L153.287,136.886z M141.48,150.513
	l10.808-10.688l7.183,8.375l-3.56,6.938L141.48,150.513z M136.422,161.513l1.436-7.625l10.619,3.375l-1.186,5.938L136.422,161.513z
	 M139.67,173.826l-5.372-0.875l1.937-10.188c1.187,0.188,2.998,0.5,4.81,0.812L139.67,173.826z M140.919,174.013l1.374-10.25
	c1.938,0.313,3.748,0.625,4.686,0.75l-2.062,10.125L140.919,174.013z M112.436,163.638l5.496-4.5l13.431,14.375l-8.745,7.189
	L112.436,163.638z M110.374,165.263l10.119,17.064l-4.622,3.812l-10.119-17.064L110.374,165.263z M101.879,151.013l7.809,13.125
	l-11.868,9.75L101.879,151.013z M77.705,173.576l2.561-10.75l14.617,2.438l-1.936,10.689L77.705,173.576z M84.327,175.953
	l8.432,1.312l-1.311,7.438l-8.121-1.5L84.327,175.953z M77.518,174.888l5.497,0.877l-1,7.25l-5.059-0.938L77.518,174.888z
	 M67.961,173.326l8.245,1.312l-0.562,7.127l-8.996-1.625C66.962,178.578,67.461,176.203,67.961,173.326z M65.4,172.826l-1.312,6.814
	l-13.742-2.5l1.499-7.564L65.4,172.826z M67.087,164.263l-1.375,7.312l-13.492-3.25l1.188-6L67.087,164.263z M79.018,162.575
	l-2.562,10.75l-8.183-1.312c0.625-3.25,1.375-7,2.123-10.938L79.018,162.575z M95.508,161.888l-0.375,2.126l-24.548-4.126
	c0.624-3.312,1.312-6.75,1.937-9.938L95.508,161.888z M80.954,144.262l15.99,9.563l-1.187,6.625l-20.051-10.438L80.954,144.262z
	 M85.638,137.198L74.52,149.512l-1.748-0.938c1.187-6.25,2.248-11.688,2.811-14.626L85.638,137.198z M92.822,129.886l7.683,2.062
	l-1.624,4.875l-7.246-2.312L92.822,129.886z M92.697,119.76l-3.498,13.751l-7.809-15.313l5.996-2.438L92.697,119.76z
	 M96.757,103.821l-3.685,14.563l-4.936-3.751l-2.311-8.062L96.757,103.821z M67.336,93.258l19.177,3.75
	c-0.75,2.125-1.374,4-1.874,5.312l-12.617,3.188L67.336,93.258z M67.087,100.008l-7.933,2.188l-3.873-9.312l7.496-4.251
	L67.087,100.008z M80.579,80.069l10.306,4.5c-1.249,3.562-2.686,7.626-3.935,11.188L66.773,91.82l-1.936-5.001l5.684-8.251
	L80.579,80.069z M80.891,72.756l-0.687,5.938l-8.808-1.375l4.311-6.312L80.891,72.756z M86.95,63.942l9.62,3.5l-2.188,7.063
	l-10.369-3.5L86.95,63.942z M87.075,56.692l-5.622,13.501l-4.497-1.5l5.996-13.126L87.075,56.692z M129.738,66.13L91.885,55.38
	l2.937-5.313l34.479,11.251L129.738,66.13z M147.415,52.941l-15.053,13.126l-1.812-19.501l16.366,0.438
	C147.041,48.691,147.354,51.879,147.415,52.941z M156.036,52.004l-7.31,0.5l-0.562-5.5l7.308,0.188L156.036,52.004z M160.533,52.816
	l5.622-0.875c0.562,3.501,1.124,7.438,1.436,9.438l-5.871,1.375L160.533,52.816z M134.111,66.255l14.24-12.438l7.809-0.5
	l1.25,10.188L134.111,66.255z M162.095,65.317l5.621-1.312l-0.874,18.439l-2.624,0.688L162.095,65.317z M151.227,66.817l6.559-0.75
	l2.123,17.314l-5.996,1.5L151.227,66.817z M138.67,88.694l4.748-13.626l7.559-1l1.623,11.063L138.67,88.694z M140.857,92.695
	l19.551-4.938l1.437,11.813l-18.552,5.626L140.857,92.695z M131.362,108.759l-8.37-11.563l16.615-4.188l2.437,12.563
	L131.362,108.759z M141.98,108.259l6.185-1.875l5.56,4.125l-9.058,3.5L141.98,108.259z M132.986,111.009l7.746-2.375l2.748,5.812
	l-6.31,2.438L132.986,111.009z M128.989,127.01l-8.559-6l8.933-10.501l5.747,8.001L128.989,127.01z M138.982,126.197
	c-1.748,2.001-3.686,5.001-5.496,8.063l-6.31-2.5l8.809-12.126l4.06,5.625C139.607,125.572,139.295,125.885,138.982,126.197z
	 M147.229,129.823l-3.498-4.126c2.311-1.5,5.496-2.938,8.744-4.125l1.75,4.625L147.229,129.823z M148.104,130.823l6.558-3.438
	l1.562,4.062l-3.81,4.438L148.104,130.823z M129.613,146.699c2.186-4.375,7.433-14.251,11.306-18.813
	c0.188-0.188,0.375-0.438,0.625-0.625l8.995,10.5l-11.932,11.813L129.613,146.699z M116.496,158.575l-4.748,3.875l-3.373-5.688
	L116.496,158.575z M103.378,142.887l16.366,5.25l-2.186,9.376c-4.311-0.938-8.184-1.812-10.058-2.188l-4.872-8.188L103.378,142.887z
	 M99.193,141.512l-1.937,10.938l-15.304-9.188l5.122-5.688L99.193,141.512z M104.064,125.385l12.182,4.876l-4.311,10.813
	l-11.867-3.813L104.064,125.385z M102.879,124.885l-1.938,5.876l-7.808-2.125l1.749-6.938L102.879,124.885z M108.25,108.634
	l2.749,4.812l1.062,12.251l-16.49-6.562l1.874-7.438L108.25,108.634z M104.314,101.883l3.187,5.563l-9.745,2.75l1.812-7.125
	L104.314,101.883z M100.193,91.758l-2.124,7.25l-11.868,3l4.435-12.688L100.193,91.758z M94.758,77.443l8.809,2.938l-3,10.125
	l-9.557-2.438L94.758,77.443z M93.509,77.006c-0.437,1.312-1.249,3.626-2.249,6.376l-9.869-4.312l0.688-5.876L93.509,77.006z
	 M106.377,71.068l-1.999,6.812l-8.745-2.938c0.624-1.938,1.749-5.562,2.187-7.063L106.377,71.068z M106.751,69.818L87.45,62.755
	l2.186-5.25l19.114,5.438L106.751,69.818z M118.869,71.256l-9.182-2.125l1.623-5.501l9.183,2.625L118.869,71.256z M129.988,68.943
	l0.5,5l-10.369-2.438l1.561-4.938L129.988,68.943z M132.674,69.068l17.303-2.063l0.875,5.813l-17.553,2.312L132.674,69.068z
	 M104.877,85.257l4.436-14.876l14.366,3.375l0.562,18.689l-10.369,2.625L104.877,85.257z M101.005,98.258l3.435-11.501l7.934,8.688
	L101.005,98.258z M121.118,105.321l-4.372-6.563l3.56-0.875l3.686,5.188L121.118,105.321z M121.868,106.384
	c0.687-0.562,1.998-1.562,2.935-2.312l3.812,5.312l-2.624,3.125L121.868,106.384z M111.811,112.259l-6.184-10.751l9.744-2.438
	l4.685,7.001C118.495,107.259,113.561,111.009,111.811,112.259z M114.061,126.51l-0.625-0.25l-1.062-12.688l8.495-6.375l4.248,6.312
	L114.061,126.51z M115.309,127.01l4.311-5.062l8.62,6.063l-2.312,3.188L115.309,127.01z M125.928,134.073l6.246,2.5
	c-2.124,3.688-3.997,7.251-4.997,9.376l-4.935-1.562L125.928,134.073z M120.931,143.887l-7.683-2.5l4.247-10.751l7.184,2.875
	L120.931,143.887z M141.98,75.318l-4.81,13.813l-2.561,0.625l-1.249-13.313L141.98,75.318z M130.613,75.318l1.436,15.063
	l-6.558,1.626l-0.5-18.064L130.613,75.318z M133.611,162.325l-1.812,9.75l-11.868-12.75L133.611,162.325z M118.744,157.7
	l2.187-9.251l14.366,4.626l-1.499,7.938C131.175,160.45,124.741,159.013,118.744,157.7z M174.213,119.822l0.938,7.626l-5.436,0.875
	l-0.937-7.876L174.213,119.822z M165.967,133.448l-8.495-2.438l-3.81-9.938c4.06-1.438,8.058-2.625,10.431-3.25L165.967,133.448z
	 M164.968,43.754l-5.434,0.625l-2.624-21.314l5.747,0.688L164.968,43.754z M192.265,28.314l-9.682-0.438l-0.313-3.312l0.563-3.062
	l7.058-0.875L192.265,28.314z M181.334,41.94l-15.054,1.688c-0.438-3.876-1.812-15.564-2.249-19.689l15.803,1.812L181.334,41.94z
	 M198.761,8.125l8.245,1.501l-1.811,14.251c-1.562-0.125-5.436-0.562-7.496-0.75C198.011,17.438,198.386,12.188,198.761,8.125z
	 M195.638,13.501c-0.312,4.438-0.625,9.501-0.687,14.876l-1.312-0.062l-4.81-15.501L195.638,13.501z M51.408,41.19L44.6,39.878
	l1.25-4.875l6.059,0.375L51.408,41.19z M55.593,23.189l3.562,1.625L63.9,44.691l-9.868-2.813L55.593,23.189z M41.789,109.321
	l5.996-12.438l4.935,13.501l-8.12,2.062C43.85,111.259,42.913,110.196,41.789,109.321z M30.232,109.696
	c-0.438,0.375-0.812,0.75-1.187,1.125l-6.434-4.938l7.87-4.626L30.232,109.696z M34.605,107.696l0.188-6.438l5.559,1l-2.623,5.438
	c-0.5-0.062-1-0.125-1.562-0.125C35.667,107.571,35.167,107.571,34.605,107.696z M29.482,156.2l-4.122-0.562l1.375-9.626l4.31,0.938
	L29.482,156.2z M34.543,141.824l5.309,0.938l-2.748,14.501l-5.06-0.75L34.543,141.824z M17.49,171.076l1.874-13.688l9.682,1.375
	l-2.374,14L17.49,171.076z M6.184,173.451l-2.873,14.627L0,187.515v2.688l36.292,6.375L0,198.077v2.627l12.243-0.5l0.187,6.688
	L0,207.579v1.312l12.43-0.688l0.25,10h2.624l-0.25-8.25l4.372-0.625l-0.249,8.875h1.312l0.25-9.062l8.494-1.188l5.935,5.375
	l-3.123,4.938h1.562l2.562-4.062l4.435,4.062h1.937L30.92,207.704c3.248-0.562,11.432-1.938,14.866-2.562l-2.248,13.125h2.623
	l1.124-6.562l9.745,1.562c-0.375,1.75-0.688,3.438-1.062,5h2.687l0.749-3.75l4.747,3.75h4.248l-8.37-6.562l1.749-8.5l25.484,3.625
	l-2.061,11.5h4.435l0.188-1.188l8.246,1.188h17.927l-9.057-1.312l2.935-12.188c3.249,0.625,11.744,2.25,14.992,2.875l-1.999,10.688
	h2.686l1.312-6.875l29.545,5.438l-0.25,1.438h4.435l0.688-3.562l6.683,0.938l0.562,2.625h1.312l-0.5-2.438l14.68,2.125l-0.062,0.312
	h32.855l-5.434-0.75l-0.5-8.188l6.996-0.375v-1.312l-7.121,0.375l-0.438-6.938l7.559-0.312v-2.627l-7.684,0.314l-0.562-9.626
	l8.308,1.438v-2.688l-8.058-1.438l3.872-14.502l4.186,0.75v-4.438l-7.996-1.5l-1.686-10l9.682-1.188v-2.625l-10.119,1.25
	l-1.624-9.751l8.558-4.188c0.749,2.5,1.936,6.688,3.248,11.188v-9.376l-0.874-3.001l0.874-0.438v-4.875l-2.061,1
	c-0.438-1.5-1-3.562-1.562-5.562c0.875-0.312,2.186-0.75,3.623-1.25v-1.376l-3.998,1.376c-0.688-2.438-1.249-4.626-1.499-5.438
	l1.937-6.312l3.498,0.375v-1.313l-3.123-0.375l2.498-8.062l0.625,0.25v-2.812l-2.873-1.062l2.873-6.876v-2.438l-5.496-2.125
	l3.435-9.876c0.687,0.438,1.374,0.812,2.062,1.188v-3.062c-2.498-1.438-4.935-3.063-7.121-4.813l7.121-1.188v-2.625l-1.998,0.312
	l-3.937-6.563l5.872-3.5v-1.5l-13.805,8.126c-0.124-0.188-0.249-0.376-0.374-0.563c-1.688-2.625-2.937-6-3.873-9.875l18.052,1.312
	V57.63l-18.364-1.312c-0.312-1.438-0.562-2.938-0.812-4.438l19.176-1.438v-2.625l-6.496,0.5l1.936-15.751l4.561-0.125v-2.626
	l-4.247,0.125l0.437-3.625l3.811-3.875v-1.875l-3.561,3.625l1.625-13.251l1.936,0.25V9.876l-1.811-0.25l0.623-5.251l1.188,0.188
	V0.125L216.812,0h-32.855l-2.061,11.313l-9.308,1.938L169.84,0h-1.312l0.812,4l-9.682,1.25l1-5.25h-4.436l-1.062,5.75l-29.733-4.375
	L125.678,0h-2.686l-0.188,1l-6.684-1H98.194l24.173,3.562l-2.312,12.313l-32.544-3.25L89.761,0h-4.435l-2.062,11.563L68.523,0
	h-4.248l14.617,11.501L56.967,8.375L58.716,0H56.03c-0.688,3.375-1.312,6.188-1.624,8L45.1,6.688l1.123-6.626H43.6l-0.125,0.812
	l-0.873-0.812h-1.938l2.561,2.312l-0.687,3.938L30.732,4.625l2.873-4.562h-1.437l-2.748,4.375l-8.87-1.25l0.062-3.062h-1.312
	L19.239,3l-3.748-0.562l-0.062-2.375h-2.624l0.063,2L0.062,0.25v4.438L12.618,6.5l-0.688,5.001L0,10.001v1.312l8.184,1L0,20.627
	v1.875l9.807-10.001l1.937,0.25L9.495,29.689L0,29.939v2.626l9.12-0.25L7.184,47.254l-7.121,0.5v2.625l3.686-0.25l1.312,7.813
	l-4.998-0.375v1.312l1.5,0.125l-1.5,0.875v1.5l3.811-2.25l1.436,0.125l1.812,10.688l-7.059,1.188v2.625l22.112-3.688l-1.437,18.626
	c-6.246-2.062-13.93-5.062-20.676-9v3.062c2.873,1.625,5.871,3.062,8.869,4.312l-3.31,8.688l-5.56-2.188v2.438l0.375-0.875
	l11.118,4.375l-1.874,8.001l-9.619-3.5v2.812l18.239,6.625l0.5,3.626l-18.677-2.063v1.313l7.496,0.812l1.624,5.938l-9.12,3.188
	v1.376c3.436-1.251,7.809-2.751,9.432-3.313l1.124,4.001l-10.556,5.188v4.875l4.561-2.25l5.371,17.377l-6.809-1l-3.123-10.751v9.376
	c0.125,0.5,0.25,0.938,0.438,1.438l-0.438,0.062v2.625l1.188-0.125c1.561,5.312,3.06,10.625,3.996,13.75l-5.184-0.938v4.438
	L6.184,173.451z"/>
</svg>
